<svg width="32" height="26" viewBox="0 0 32 26" fill="none" xmlns="http://www.w3.org/2000/svg">
<path d="M16.8437 23.176H14.2121C14.0949 23.176 13.9824 23.1302 13.8995 23.0487C13.8166 22.9672 13.77 22.8567 13.77 22.7415V1.75451C13.77 1.29631 13.9552 0.856873 14.2849 0.532875C14.6146 0.208876 15.0617 0.0268555 15.5279 0.0268555C15.9941 0.0268555 16.4412 0.208876 16.7709 0.532875C17.1006 0.856873 17.2858 1.29631 17.2858 1.75451V22.7419C17.2857 22.8571 17.239 22.9675 17.1561 23.0489C17.0732 23.1303 16.9608 23.176 16.8437 23.176ZM14.6543 22.3069H16.4015V1.75451C16.4015 1.52679 16.3095 1.3084 16.1456 1.14738C15.9818 0.98636 15.7596 0.895898 15.5279 0.895898C15.2962 0.895898 15.074 0.98636 14.9101 1.14738C14.7463 1.3084 14.6543 1.52679 14.6543 1.75451V22.3069Z" fill="white"/>
<path d="M4.87276 5.85192H3.35496C2.99485 5.84557 2.65167 5.70052 2.39929 5.44798C2.1469 5.19545 2.00549 4.85562 2.00549 4.50164C2.00549 4.14766 2.1469 3.80784 2.39929 3.5553C2.65167 3.30277 2.99485 3.15772 3.35496 3.15137H4.65745C4.77471 3.15137 4.88716 3.19715 4.97007 3.27864C5.05299 3.36012 5.09957 3.47065 5.09957 3.58589C5.09957 3.70113 5.05299 3.81165 4.97007 3.89314C4.88716 3.97463 4.77471 4.02041 4.65745 4.02041H3.35496C3.22764 4.02417 3.10682 4.07652 3.01812 4.16636C2.92942 4.2562 2.8798 4.37646 2.8798 4.50164C2.8798 4.62683 2.92942 4.74709 3.01812 4.83693C3.10682 4.92677 3.22764 4.97912 3.35496 4.98288H4.87276C4.99002 4.98288 5.10247 5.02866 5.18539 5.11014C5.2683 5.19163 5.31488 5.30215 5.31488 5.4174C5.31488 5.53264 5.2683 5.64316 5.18539 5.72465C5.10247 5.80614 4.99002 5.85192 4.87276 5.85192Z" fill="white"/>
<path d="M14.2121 5.85192H7.5471C7.42984 5.85192 7.31739 5.80614 7.23448 5.72465C7.15156 5.64316 7.10498 5.53264 7.10498 5.4174C7.10498 5.30215 7.15156 5.19163 7.23448 5.11014C7.31739 5.02866 7.42984 4.98288 7.5471 4.98288H13.77V4.02041H7.76197C7.64471 4.02041 7.53226 3.97463 7.44935 3.89314C7.36643 3.81165 7.31985 3.70113 7.31985 3.58589C7.31985 3.47065 7.36643 3.36012 7.44935 3.27864C7.53226 3.19715 7.64471 3.15137 7.76197 3.15137H14.2121C14.3293 3.15137 14.4418 3.19715 14.5247 3.27864C14.6076 3.36012 14.6542 3.47065 14.6542 3.58589V5.4174C14.6542 5.53264 14.6076 5.64316 14.5247 5.72465C14.4418 5.80614 14.3293 5.85192 14.2121 5.85192Z" fill="white"/>
<path d="M23.4122 5.85192H16.8436C16.7264 5.85192 16.6139 5.80614 16.531 5.72465C16.4481 5.64316 16.4015 5.53264 16.4015 5.4174V3.58589C16.4015 3.47065 16.4481 3.36012 16.531 3.27864C16.6139 3.19715 16.7264 3.15137 16.8436 3.15137H23.1973C23.3146 3.15137 23.4271 3.19715 23.51 3.27864C23.5929 3.36012 23.6395 3.47065 23.6395 3.58589C23.6395 3.70113 23.5929 3.81165 23.51 3.89314C23.4271 3.97463 23.3146 4.02041 23.1973 4.02041H17.2857V4.98288H23.4122C23.5295 4.98288 23.6419 5.02866 23.7248 5.11014C23.8078 5.19163 23.8543 5.30215 23.8543 5.4174C23.8543 5.53264 23.8078 5.64316 23.7248 5.72465C23.6419 5.80614 23.5295 5.85192 23.4122 5.85192Z" fill="white"/>
<path d="M27.6964 5.85192H26.183C26.0657 5.85192 25.9533 5.80614 25.8703 5.72465C25.7874 5.64316 25.7408 5.53264 25.7408 5.4174C25.7408 5.30215 25.7874 5.19163 25.8703 5.11014C25.9533 5.02866 26.0657 4.98288 26.183 4.98288H27.6964C27.8237 4.97912 27.9445 4.92677 28.0332 4.83693C28.1219 4.74709 28.1715 4.62683 28.1715 4.50164C28.1715 4.37646 28.1219 4.2562 28.0332 4.16636C27.9445 4.07652 27.8237 4.02417 27.6964 4.02041H26.4009C26.2837 4.02041 26.1712 3.97463 26.0883 3.89314C26.0054 3.81165 25.9588 3.70113 25.9588 3.58589C25.9588 3.47065 26.0054 3.36012 26.0883 3.27864C26.1712 3.19715 26.2837 3.15137 26.4009 3.15137H27.6964C28.0565 3.15772 28.3996 3.30277 28.652 3.5553C28.9044 3.80784 29.0458 4.14766 29.0458 4.50164C29.0458 4.85562 28.9044 5.19545 28.652 5.44798C28.3996 5.70052 28.0565 5.84557 27.6964 5.85192Z" fill="white"/>
<path d="M21.1273 25.9725H9.92834C9.86123 25.9724 9.79501 25.9574 9.7347 25.9285C9.67438 25.8995 9.62156 25.8575 9.58023 25.8055C9.53891 25.7536 9.51016 25.6931 9.49617 25.6285C9.48217 25.564 9.48331 25.4972 9.49948 25.4332C9.68178 24.5739 10.1512 23.7992 10.8332 23.2323C11.5151 22.6654 12.3703 22.3388 13.2628 22.3047H17.7928C18.6853 22.3388 19.5405 22.6654 20.2224 23.2323C20.9044 23.7992 21.3738 24.5739 21.5561 25.4332C21.5723 25.4972 21.5734 25.564 21.5594 25.6285C21.5455 25.6931 21.5167 25.7536 21.4754 25.8055C21.434 25.8575 21.3812 25.8995 21.3209 25.9285C21.2606 25.9574 21.1944 25.9724 21.1273 25.9725ZM10.5398 25.1034H20.5158C20.3054 24.5544 19.9347 24.0786 19.4503 23.7357C18.9659 23.3929 18.3893 23.1981 17.7928 23.1759H13.2628C12.6663 23.1981 12.0897 23.3929 11.6053 23.7357C11.1209 24.0786 10.7502 24.5544 10.5398 25.1034Z" fill="white"/>
<path d="M22.3245 25.9726H8.73106C8.6138 25.9726 8.50135 25.9268 8.41843 25.8453C8.33552 25.7638 8.28894 25.6533 8.28894 25.538C8.28894 25.4228 8.33552 25.3123 8.41843 25.2308C8.50135 25.1493 8.6138 25.1035 8.73106 25.1035H22.3245C22.4418 25.1035 22.5542 25.1493 22.6371 25.2308C22.72 25.3123 22.7666 25.4228 22.7666 25.538C22.7666 25.6533 22.72 25.7638 22.6371 25.8453C22.5542 25.9268 22.4418 25.9726 22.3245 25.9726Z" fill="white"/>
<path d="M30.5599 16.747H19.1351C19.0611 16.7471 18.9882 16.7289 18.9232 16.6941C18.8582 16.6593 18.8032 16.609 18.7631 16.5478C18.723 16.4867 18.6992 16.4166 18.6938 16.3441C18.6884 16.2715 18.7017 16.1988 18.7323 16.1326L23.5868 5.62849C23.6107 5.57638 23.6448 5.52941 23.6872 5.49029C23.7296 5.45116 23.7795 5.42065 23.8339 5.40049C23.8883 5.38032 23.9463 5.37091 24.0044 5.37279C24.0625 5.37467 24.1197 5.38781 24.1727 5.41145C24.2256 5.43508 24.2733 5.46876 24.313 5.51054C24.3527 5.55232 24.3836 5.60139 24.404 5.65493C24.4243 5.70848 24.4338 5.76544 24.4317 5.82257C24.4296 5.87969 24.4161 5.93586 24.3919 5.98784L19.8212 15.878H29.872L25.3053 5.98784C25.2813 5.93585 25.268 5.87974 25.2661 5.82269C25.2642 5.76565 25.2737 5.70879 25.2942 5.65537C25.3146 5.60195 25.3456 5.55301 25.3853 5.51134C25.4249 5.46967 25.4726 5.4361 25.5255 5.41253C25.5784 5.38896 25.6355 5.37587 25.6935 5.37399C25.7516 5.37211 25.8094 5.38148 25.8638 5.40158C25.9181 5.42167 25.9679 5.45209 26.0103 5.4911C26.0527 5.53011 26.0869 5.57694 26.1109 5.62892L30.9605 16.133C30.991 16.1991 31.0041 16.2715 30.9988 16.3438C30.9935 16.4162 30.9698 16.486 30.93 16.547C30.8902 16.6081 30.8355 16.6583 30.7708 16.6933C30.7062 16.7282 30.6337 16.7467 30.5599 16.747Z" fill="white"/>
<path d="M24.8928 22.2894H24.8008C21.2608 22.2894 18.6912 19.7761 18.6912 16.3129C18.6912 16.1977 18.7377 16.0872 18.8207 16.0057C18.9036 15.9242 19.016 15.8784 19.1333 15.8784H30.5599C30.6771 15.8784 30.7896 15.9242 30.8725 16.0057C30.9554 16.0872 31.002 16.1977 31.002 16.3129C31.002 19.7783 28.4324 22.2894 24.8928 22.2894ZM19.5909 16.7475C19.7881 19.5206 21.8744 21.4203 24.8008 21.4203H24.8928C27.8187 21.4203 29.9056 19.5206 30.1023 16.7475H19.5909Z" fill="white"/>
<path d="M24.8468 6.47143C24.4168 6.47152 23.9966 6.3463 23.6391 6.11161C23.2816 5.87693 23.0029 5.54332 22.8384 5.15298C22.6738 4.76264 22.6307 4.3331 22.7146 3.9187C22.7984 3.50429 23.0055 3.12364 23.3094 2.82487C23.6134 2.5261 24.0008 2.32265 24.4224 2.24024C24.8441 2.15783 25.2811 2.20017 25.6783 2.3619C26.0754 2.52363 26.4149 2.79749 26.6537 3.14884C26.8925 3.50019 27.0199 3.91324 27.0198 4.33576C27.0191 4.90196 26.7899 5.44478 26.3825 5.84515C25.9752 6.24551 25.4229 6.47074 24.8468 6.47143ZM24.8468 3.0687C24.5918 3.06861 24.3425 3.14285 24.1304 3.28202C23.9183 3.4212 23.753 3.61906 23.6554 3.85058C23.5577 4.08209 23.5321 4.33687 23.5818 4.58269C23.6315 4.8285 23.7543 5.05431 23.9345 5.23156C24.1148 5.4088 24.3445 5.52952 24.5946 5.57845C24.8447 5.62737 25.104 5.60231 25.3396 5.50642C25.5752 5.41053 25.7766 5.24813 25.9182 5.03975C26.0599 4.83137 26.1355 4.58638 26.1355 4.33576C26.1352 3.9999 25.9993 3.67788 25.7577 3.44035C25.5161 3.20281 25.1885 3.06916 24.8468 3.0687Z" fill="white"/>
<path d="M11.9201 16.7475H0.49571C0.421735 16.7475 0.348949 16.7292 0.284016 16.6944C0.219084 16.6595 0.164082 16.6093 0.124049 16.5481C0.0840157 16.487 0.0602306 16.4169 0.0548724 16.3444C0.0495142 16.2719 0.0627541 16.1992 0.0933795 16.1331L4.94875 5.62896C4.99724 5.52397 5.08617 5.44222 5.19599 5.40168C5.30581 5.36114 5.42752 5.36513 5.53434 5.41278C5.64117 5.46044 5.72435 5.54784 5.7656 5.65577C5.80685 5.7637 5.80278 5.88332 5.7543 5.98831L1.18365 15.8784H11.2344L6.66772 5.98831C6.64233 5.93616 6.62778 5.87955 6.62493 5.82181C6.62207 5.76407 6.63097 5.70634 6.6511 5.65202C6.67124 5.5977 6.70219 5.54787 6.74217 5.50546C6.78214 5.46305 6.83032 5.4289 6.88389 5.40502C6.93746 5.38114 6.99534 5.368 7.05414 5.36638C7.11294 5.36476 7.17148 5.37469 7.22633 5.39559C7.28117 5.41648 7.33123 5.44793 7.37355 5.48807C7.41588 5.52822 7.44963 5.57626 7.47282 5.62939L12.3229 16.1335C12.3534 16.1997 12.3666 16.2724 12.3612 16.3448C12.3557 16.4173 12.3319 16.4873 12.2918 16.5484C12.2518 16.6095 12.1967 16.6597 12.1318 16.6945C12.0669 16.7293 11.9941 16.7475 11.9201 16.7475Z" fill="white"/>
<path d="M6.25478 22.2894H6.16282C2.6232 22.2894 0.0535889 19.7783 0.0535889 16.3129C0.0535889 16.1977 0.100169 16.0872 0.183083 16.0057C0.265997 15.9242 0.378452 15.8784 0.49571 15.8784H11.9223C12.0396 15.8784 12.152 15.9242 12.235 16.0057C12.3179 16.0872 12.3645 16.1977 12.3645 16.3129C12.3645 19.7783 9.79484 22.2894 6.25478 22.2894ZM0.953305 16.7475C1.15005 19.5206 3.23686 21.4203 6.16282 21.4203H6.25478C9.18118 21.4203 11.2676 19.5206 11.4647 16.7475H0.953305Z" fill="white"/>
<path d="M6.20887 6.47143C5.77898 6.47143 5.35874 6.34614 5.00131 6.1114C4.64387 5.87667 4.3653 5.54303 4.2008 5.15268C4.03631 4.76233 3.9933 4.33281 4.0772 3.91843C4.1611 3.50406 4.36814 3.12344 4.67215 2.82472C4.97616 2.52599 5.36348 2.32258 5.78512 2.24021C6.20676 2.15784 6.64378 2.2002 7.04093 2.36195C7.43807 2.52369 7.77749 2.79755 8.01626 3.14889C8.25503 3.50022 8.38242 3.91326 8.38234 4.33576C8.38163 4.90204 8.1524 5.44492 7.74494 5.8453C7.33748 6.24568 6.78505 6.47086 6.20887 6.47143ZM6.20887 3.0687C5.95388 3.0687 5.70463 3.14301 5.49261 3.28224C5.2806 3.42146 5.11536 3.61935 5.01778 3.85088C4.9202 4.0824 4.89467 4.33717 4.94442 4.58295C4.99416 4.82874 5.11695 5.05451 5.29725 5.23171C5.47755 5.40891 5.70727 5.52959 5.95735 5.57848C6.20744 5.62737 6.46666 5.60228 6.70223 5.50638C6.93781 5.41047 7.13916 5.24807 7.28082 5.0397C7.42248 4.83134 7.49809 4.58636 7.49809 4.33576C7.49774 3.99982 7.3618 3.67774 7.1201 3.44019C6.8784 3.20265 6.55068 3.06904 6.20887 3.0687Z" fill="white"/>
</svg>
